<svg class="railroad-diagram" height="160" viewBox="0 0 419.0 160" width="419.0" xmlns="http://www.w3.org/2000/svg" xmlns:xlink="http://www.w3.org/1999/xlink">
<g transform="translate(.5 .5)">
<g>
<path d="M20 21v20m10 -20v20m-10 -10h20" /></g><path d="M40 31h10" /><g class="terminal ">
<path d="M50 31h0.0" /><path d="M95.5 31h0.0" /><rect height="22" rx="10" ry="10" width="45.5" x="50" y="20"></rect><text x="72.75" y="35">mib</text></g><path d="M95.5 31h10" /><path d="M105.5 31h10" /><g class="terminal ">
<path d="M115.5 31h0.0" /><path d="M144.0 31h0.0" /><rect height="22" rx="10" ry="10" width="28.5" x="115.5" y="20"></rect><text x="129.75" y="35">{</text></g><path d="M144.0 31h10" /><path d="M154.0 31h10" /><g>
<path d="M164.0 31h0.0" /><path d="M320.5 31h0.0" /><path d="M164.0 31h10" /><g>
<path d="M174.0 31h0.0" /><path d="M310.5 31h0.0" /><path d="M174.0 31h20" /><g class="non-terminal ">
<path d="M194.0 31h12.75" /><path d="M277.75 31h12.75" /><rect height="22" width="71" x="206.75" y="20"></rect><text x="242.25" y="35">OBJECT</text></g><path d="M290.5 31h20" /><path d="M174.0 31a10 10 0 0 1 10 10v10a10 10 0 0 0 10 10" /><g class="non-terminal ">
<path d="M194.0 61h0.0" /><path d="M290.5 61h0.0" /><rect height="22" width="96.5" x="194" y="50"></rect><text x="242.25" y="65">PARAMETER</text></g><path d="M290.5 61a10 10 0 0 0 10 -10v-10a10 10 0 0 1 10 -10" /><path d="M174.0 31a10 10 0 0 1 10 10v40a10 10 0 0 0 10 10" /><g class="non-terminal ">
<path d="M194.0 91h17.0" /><path d="M273.5 91h17.0" /><rect height="22" width="62.5" x="211" y="80"></rect><text x="242.25" y="95">EVENT</text></g><path d="M290.5 91a10 10 0 0 0 10 -10v-40a10 10 0 0 1 10 -10" /><path d="M174.0 31a10 10 0 0 1 10 10v70a10 10 0 0 0 10 10" /><g class="non-terminal ">
<path d="M194.0 121h4.25" /><path d="M286.25 121h4.25" /><rect height="22" width="88" x="198.25" y="110"></rect><text x="242.25" y="125">FUNCTION</text></g><path d="M290.5 121a10 10 0 0 0 10 -10v-70a10 10 0 0 1 10 -10" /></g><path d="M310.5 31h10" /><path d="M174.0 31a10 10 0 0 0 -10 10v89a10 10 0 0 0 10 10" /><g>
<path d="M174.0 140h136.5" /></g><path d="M310.5 140a10 10 0 0 0 10 -10v-89a10 10 0 0 0 -10 -10" /></g><path d="M320.5 31h10" /><path d="M330.5 31h10" /><g class="terminal ">
<path d="M340.5 31h0.0" /><path d="M369.0 31h0.0" /><rect height="22" rx="10" ry="10" width="28.5" x="340.5" y="20"></rect><text x="354.75" y="35">}</text></g><path d="M369.0 31h10" /><path d="M 379.0 31 h 20 m -10 -10 v 20 m 10 -20 v 20"></path></g><style>/* <![CDATA[ */
svg.railroad-diagram {
    background-color:hsl(30,20%,95%);
}
svg.railroad-diagram path {
    stroke-width:3;
    stroke:black;
    fill:rgba(0,0,0,0);
}
svg.railroad-diagram text {
    font:bold 14px monospace;
    text-anchor:middle;
}
svg.railroad-diagram text.label{
    text-anchor:start;
}
svg.railroad-diagram text.comment{
    font:italic 12px monospace;
}
svg.railroad-diagram rect{
    stroke-width:3;
    stroke:black;
    fill:hsl(120,100%,90%);
}
svg.railroad-diagram g.non-terminal rect{
    stroke: black;
    fill: white;
)
svg.railroad-diagram rect.group-box {
    stroke: gray;
    stroke-dasharray: 10 5;
    fill: none;
}
/* ]]> */
</style></svg>